<svg width="40" height="40" viewBox="0 0 40 40" fill="none" xmlns="http://www.w3.org/2000/svg">
<path d="M40 27.2264L27.1323 22.9002C27.1323 22.9002 28.1192 21.4196 29.1766 18.5163C30.2339 15.6129 30.3813 14.017 30.3813 14.017L22.0506 13.9465V11.1008L32.1371 11.0303V9.01779H22.0506V4.4416H17.1099V9.01779H7.70267V11.0303L17.1163 10.9662V14.017H9.56105V15.6129H25.1009C25.1009 15.6129 24.9279 16.9075 24.332 18.5163C23.736 20.125 23.1208 21.535 23.1208 21.535C23.1208 21.535 15.8283 18.9777 11.9833 18.9777C8.13843 18.9777 3.46685 20.5224 3.01186 25.0024C2.56329 29.4825 5.19065 31.9115 8.89459 32.8024C12.5985 33.6997 16.0205 32.796 18.9939 31.3347C21.9737 29.8798 24.8959 26.5727 24.8959 26.5727L39.8911 33.8535C39.2823 37.4043 36.1935 40 32.5921 40H7.40789C3.31946 40.0064 0.00641748 36.6992 9.28057e-06 32.6102V7.40907C-0.00639892 3.31999 3.30664 0.00641851 7.39508 9.28206e-06H32.5921C36.6806 -0.00639994 39.9936 3.30717 40 7.39626V27.2264ZM21.2432 24.7204C21.2432 24.7204 16.5652 30.6297 11.0477 30.6297C5.53029 30.6297 4.3704 27.8225 4.3704 25.8036C4.3704 23.7846 5.51747 21.5927 10.2147 21.2722C14.9055 20.9518 21.2496 24.7204 21.2432 24.7204Z" fill="#02A9F1"/>
</svg>
