<svg width="64" height="64" viewBox="0 0 64 64" fill="none" xmlns="http://www.w3.org/2000/svg">
<path d="M50.04 52H13.96C10.12 52 7 48.88 7 45.04V18.96C7 15.12 10.12 12 13.96 12H50.04C53.88 12 57 15.12 57 18.96V45.04C57 48.88 53.88 52 50.04 52ZM13.96 16C12.33 16 11 17.33 11 18.96V45.04C11 46.67 12.33 48 13.96 48H50.04C51.67 48 53 46.67 53 45.04V18.96C53 17.33 51.67 16 50.04 16H13.96Z" fill="black"/>
<path d="M32.0015 36C31.5115 36 31.0315 35.82 30.6415 35.47L17.6415 23.47C16.8315 22.72 16.7815 21.46 17.5315 20.64C18.2815 19.83 19.5515 19.78 20.3615 20.53L32.0015 31.28L43.6415 20.53C44.4515 19.78 45.7215 19.83 46.4715 20.64C47.2215 21.45 47.1715 22.72 46.3615 23.47L33.3615 35.47C32.9715 35.82 32.4915 36 32.0015 36Z" fill="black"/>
</svg>
