<svg width="24" height="24" viewBox="0 0 24 24" fill="none" xmlns="http://www.w3.org/2000/svg">
<path d="M14.25 21H9.75C6.02625 21 3 17.97 3 14.25V9.75C3 6.02625 6.02625 3 9.75 3H14.25C17.97 3 21 6.02625 21 9.75V14.25C21 17.97 17.97 21 14.25 21ZM9.75 4.5C6.855 4.5 4.5 6.855 4.5 9.75V14.25C4.5 17.145 6.855 19.5 9.75 19.5H14.25C17.145 19.5 19.5 17.145 19.5 14.25V9.75C19.5 6.855 17.145 4.5 14.25 4.5H9.75Z" fill="#4684E2"/>
<path d="M16.4999 11.2501H7.4999C7.20365 11.2501 6.93365 11.0776 6.81365 10.8039C6.69365 10.5339 6.7424 10.2189 6.94115 9.99761L9.64115 6.99761C9.91865 6.69011 10.3911 6.66386 10.6986 6.94136C11.0061 7.21886 11.0324 7.69136 10.7549 7.99886L9.18365 9.75011H16.4999C16.9124 9.75011 17.2499 10.0876 17.2499 10.5001C17.2499 10.9126 16.9124 11.2501 16.4999 11.2501Z" fill="#4684E2"/>
<path d="M13.8 17.2497C13.62 17.2497 13.44 17.1859 13.2975 17.0584C12.99 16.7809 12.9637 16.3084 13.2413 16.0009L14.8162 14.2534H7.5C7.0875 14.2534 6.75 13.9159 6.75 13.5034C6.75 13.0909 7.0875 12.7534 7.5 12.7534H16.5C16.7963 12.7534 17.0663 12.9259 17.1863 13.1997C17.3063 13.4734 17.2575 13.7847 17.0588 14.0059L14.3588 17.0059C14.2088 17.1672 14.0062 17.2497 13.8 17.2497Z" fill="#4684E2"/>
</svg>
