<svg width="64" height="64" viewBox="0 0 64 64" fill="none" xmlns="http://www.w3.org/2000/svg">
<path d="M48.99 22H47.86C46.87 14.12 40.14 8 32 8C23.86 8 17.13 14.12 16.14 22H15.01C11.14 22 8 25.14 8 29.01V49C8 52.86 11.14 56 15.01 56H49C52.86 56 56.01 52.86 56.01 48.99V29.01C56 25.14 52.86 22 48.99 22ZM32 12C37.93 12 42.86 16.33 43.82 22H20.18C21.14 16.33 26.07 12 32 12ZM52 48.99C52 50.65 50.65 52 48.99 52H15.01C13.35 52 12 50.65 12 48.99V29.01C12 27.35 13.35 26 15.01 26H49C50.66 26 52.01 27.35 52.01 29.01V48.99H52Z" fill="black"/>
<path d="M32 46C30.9 46 30 45.1 30 44V36C30 34.9 30.9 34 32 34C33.1 34 34 34.9 34 36V44C34 45.1 33.1 46 32 46Z" fill="black"/>
</svg>
