<svg width="18" height="18" viewBox="0 0 18 18" fill="none" xmlns="http://www.w3.org/2000/svg">
<path d="M17.7787 16.7213L15.2287 14.1713C16.4887 12.6713 17.25 10.7362 17.25 8.625C17.25 3.8625 13.3875 0 8.625 0C3.8625 0 0 3.8625 0 8.625C0 13.3875 3.8625 17.25 8.625 17.25C10.7362 17.25 12.6712 16.4888 14.1712 15.2288L16.7212 17.7787C16.8675 17.925 17.0587 18 17.25 18C17.4412 18 17.6325 17.925 17.7787 17.7787C18.075 17.4862 18.075 17.0138 17.7787 16.7213ZM1.5 8.625C1.5 4.695 4.695 1.5 8.625 1.5C12.555 1.5 15.75 4.695 15.75 8.625C15.75 12.555 12.555 15.75 8.625 15.75C4.695 15.75 1.5 12.555 1.5 8.625Z" fill="#A1ADC5"/>
</svg>
