<svg width="24" height="24" viewBox="0 0 24 24" fill="none" xmlns="http://www.w3.org/2000/svg">
<path fill-rule="evenodd" clip-rule="evenodd" d="M12 3C10.8871 3 9.96118 3.81085 9.78152 4.87314C7.14357 5.79095 5.25 8.29964 5.25 11.25V15L3 18H21L18.75 15V11.25C18.75 8.29964 16.8564 5.79095 14.2185 4.87314C14.0388 3.81085 13.1129 3 12 3ZM12 6C14.895 6 17.25 8.355 17.25 11.25V15V15.4988L17.55 15.9L18 16.5H6L6.45 15.9L6.75 15.4988V15V11.25C6.75 8.355 9.105 6 12 6ZM12 19.5C12.5663 19.5 13.0838 19.2113 13.395 18.75H15.045C14.6363 20.0812 13.4063 21 12.0038 21C10.6013 21 9.37127 20.0812 8.96252 18.75H10.605C10.9125 19.2113 11.4338 19.5 12 19.5Z" fill="#4684E2"/>
</svg>
