<svg width="24" height="24" viewBox="0 0 24 24" fill="none" xmlns="http://www.w3.org/2000/svg">
<path d="M18.3713 8.25H17.9475C17.5763 5.295 15.0525 3 12 3C8.9475 3 6.42375 5.295 6.0525 8.25H5.62875C4.1775 8.25 3 9.4275 3 10.8787V18.375C3 19.8225 4.1775 21 5.62875 21H18.375C19.8225 21 21.0037 19.8225 21.0037 18.3713V10.8787C21 9.4275 19.8225 8.25 18.3713 8.25ZM12 4.5C14.2238 4.5 16.0725 6.12375 16.4325 8.25H7.5675C7.9275 6.12375 9.77625 4.5 12 4.5ZM19.5 18.3713C19.5 18.9938 18.9938 19.5 18.3713 19.5H5.62875C5.00625 19.5 4.5 18.9938 4.5 18.3713V10.8787C4.5 10.2562 5.00625 9.75 5.62875 9.75H18.375C18.9975 9.75 19.5037 10.2562 19.5037 10.8787V18.3713H19.5Z" fill="#4684E2"/>
<path d="M9.5887 14.0664C9.5212 13.9914 9.4387 13.9351 9.33745 13.8901C9.1612 13.8151 8.97745 13.8114 8.7787 13.8939C8.5987 13.9726 8.45245 14.1264 8.37745 14.3289C8.3437 14.4189 8.32495 14.5126 8.32495 14.6101C8.32495 14.7039 8.3437 14.7976 8.3812 14.8989C8.4187 14.9926 8.4712 15.0789 8.5387 15.1501L10.7437 17.4939C10.8112 17.5689 10.8937 17.6251 10.995 17.6701C11.085 17.7076 11.175 17.7264 11.2687 17.7264C11.3625 17.7264 11.4525 17.7076 11.5537 17.6664C11.6437 17.6251 11.7262 17.5689 11.7975 17.4939L15.4687 13.5901C15.5362 13.5189 15.5925 13.4326 15.63 13.3276C15.6637 13.2376 15.6825 13.1439 15.6825 13.0464C15.6825 12.9489 15.6637 12.8589 15.63 12.7576C15.555 12.5664 15.4125 12.4126 15.2212 12.3301C15.0412 12.2551 14.8612 12.2514 14.6625 12.3339C14.5687 12.3751 14.49 12.4314 14.4187 12.5064L11.2725 15.8514L9.5887 14.0664Z" fill="#4684E2"/>
</svg>
