<svg width="32" height="32" viewBox="0 0 32 32" fill="none" xmlns="http://www.w3.org/2000/svg">
<path d="M27 15C26.45 15 26 15.45 26 16C26 21.515 21.515 26 16 26C10.485 26 6 21.515 6 16C6 10.485 10.485 6 16 6C16.55 6 17 5.55 17 5C17 4.45 16.55 4 16 4C9.375 4 4 9.375 4 16C4 22.625 9.375 28 16 28C22.625 28 28 22.625 28 16C28 15.45 27.55 15 27 15Z" fill="black"/>
<path d="M27.9799 4.805C27.9749 4.775 27.9649 4.75 27.9549 4.72C27.9449 4.685 27.9349 4.65 27.9249 4.62C27.9099 4.585 27.8899 4.555 27.8749 4.525C27.8599 4.5 27.8499 4.475 27.8349 4.45C27.7599 4.34 27.6649 4.245 27.5599 4.175C27.5349 4.16 27.5099 4.15 27.4849 4.135C27.4549 4.115 27.4199 4.1 27.3849 4.085C27.3499 4.07 27.3199 4.065 27.2849 4.055C27.2549 4.045 27.2299 4.035 27.1999 4.03C27.1299 4.005 27.0649 4 26.9999 4H22.9999C22.4499 4 21.9999 4.45 21.9999 5C21.9999 5.55 22.4499 6 22.9999 6H24.5849L15.2949 15.295C14.9049 15.685 14.9049 16.32 15.2949 16.71C15.4899 16.9 15.7449 17 15.9999 17C16.2549 17 16.5099 16.9 16.7049 16.705L25.9999 7.415V9C25.9999 9.55 26.4499 10 26.9999 10C27.5499 10 27.9999 9.55 27.9999 9V5C27.9999 4.935 27.9949 4.87 27.9799 4.805Z" fill="#4684E2"/>
</svg>
