<svg width="32" height="32" viewBox="0 0 32 32" fill="none" xmlns="http://www.w3.org/2000/svg">
<path d="M22.5 28C22.25 28 22 27.9 21.8 27.7L19.3 25.2C18.9 24.8 18.9 24.2 19.3 23.8C19.7 23.4 20.3 23.4 20.7 23.8L22.5 25.6L26.3 21.8C26.7 21.4 27.3 21.4 27.7 21.8C28.1 22.2 28.1 22.8 27.7 23.2L23.2 27.7C23 27.9 22.75 28 22.5 28Z" fill="#4684E2"/>
<path d="M26.65 21.55C26.55 21.6 26.4 21.65 26.3 21.75L22.5 25.6L20.7 23.8C20.5 23.6 20.25 23.5 20 23.5C19.75 23.5 19.5 23.6 19.3 23.8C18.9 24.2 18.9 24.8001 19.3 25.2001L21 26.9C23.4 25.8 25.4 23.9 26.65 21.55Z" fill="#4684E2"/>
<path d="M18.25 26.25C17.3 25.3 17.3 23.7 18.25 22.7C18.7 22.25 19.35 21.95 20 21.95C20.65 21.95 21.3 22.2 21.75 22.7L22.5 23.45L25.25 20.7C25.7 20.25 26.35 19.95 27 19.95C27.1 19.95 27.2 19.95 27.3 20C27.75 18.75 28 17.4 28 15.95C28 9.35 22.65 4 16 4C9.35 4 4 9.35 4 16C4 22.65 9.35 28 16 28C17.2 28 18.35 27.8 19.45 27.5L18.25 26.25ZM19.5 21C18.65 21 18 20.35 18 19.5C18 18.65 18.65 18 19.5 18C20.35 18 21 18.65 21 19.5C21 20.35 20.35 21 19.5 21ZM12.5 11C13.35 11 14 11.65 14 12.5C14 13.35 13.35 14 12.5 14C11.65 14 11 13.35 11 12.5C11 11.65 11.65 11 12.5 11ZM12.7 20.7C12.5 20.9 12.25 21 12 21C11.75 21 11.5 20.9 11.3 20.7C10.9 20.3 10.9 19.7 11.3 19.3L19.3 11.3C19.7 10.9 20.3 10.9 20.7 11.3C21.1 11.7 21.1 12.3 20.7 12.7L12.7 20.7Z" fill="#4684E2"/>
</svg>
