<svg width="30" height="30" viewBox="0 0 30 30" fill="none" xmlns="http://www.w3.org/2000/svg">
<path d="M13.1461 14.127C10.3096 14.2635 8.01758 15.7905 8.01758 17.7C8.01758 19.6095 10.3081 21.054 13.1446 20.9175C15.9811 20.781 18.2716 18.981 18.2716 17.0715C18.2461 15.1905 15.9541 13.9905 13.1461 14.127ZM15.0541 18.954C14.1826 20.1 12.4636 20.646 10.8001 19.7175C10.0096 19.281 10.0366 18.435 10.0366 18.435C10.0366 18.435 9.70958 15.735 12.5461 15.408C15.4096 15.054 15.9271 17.8095 15.0541 18.954Z" fill="#EA5D5C"/>
<path d="M13.1459 17.1271C12.9554 17.2636 12.9284 17.5096 13.0364 17.6731C13.1189 17.8366 13.3634 17.8636 13.5269 17.7271C13.6904 17.5906 13.7729 17.3446 13.6634 17.1811C13.5824 17.0176 13.3634 16.9906 13.1459 17.1271ZM11.8094 17.5096C11.2634 17.5636 10.9094 18.0271 10.9094 18.4921C10.9094 18.9286 11.3459 19.2556 11.8634 19.2016C12.3809 19.1476 12.8174 18.7381 12.8174 18.2746C12.8174 17.8111 12.4094 17.4541 11.8094 17.5096Z" fill="#EA5D5C"/>
<path d="M15 0C6.7095 0 0 6.7095 0 15C0 23.2905 6.7095 30 15 30C23.2905 30 30 23.2905 30 15C30 6.7095 23.2905 0 15 0ZM20.7825 18.354C19.6095 20.8635 15.765 22.0905 12.9285 21.8715C10.2285 21.654 6.738 20.754 6.3825 17.4255C6.3825 17.4255 6.192 15.9255 7.6365 13.989C7.6365 13.989 9.7095 11.0715 12.1095 10.2255C14.5365 9.408 14.8095 10.7985 14.8095 11.643C14.673 12.3525 14.4555 12.7605 15.3555 12.489C15.3555 12.489 17.7285 11.3715 18.7095 12.3525C19.5 13.143 18.846 14.262 18.846 14.262C18.846 14.262 18.519 14.616 19.2 14.7525C19.827 14.8635 21.954 15.846 20.7825 18.354ZM18.4365 11.427C18.1905 11.427 17.973 11.2095 17.973 10.9635C17.973 10.6905 18.1905 10.5 18.4365 10.5C18.4365 10.5 21.354 9.954 21 13.1175V13.1715C20.973 13.389 20.7825 13.581 20.5365 13.581C20.2635 13.581 20.073 13.3635 20.073 13.1175C20.073 13.0635 20.5365 10.9635 18.4365 11.427ZM23.373 14.454C23.2905 15 23.019 14.781 22.719 14.781C22.3365 14.781 22.0365 14.2905 22.0365 13.908C22.0365 13.581 22.173 13.254 22.173 13.254C22.2 13.1175 22.527 12.2445 21.9555 10.9635C20.919 9.1905 18.846 9.1905 18.6015 9.273C18.3555 9.3825 17.9745 9.4365 17.9745 9.4365C17.592 9.4365 17.292 9.1365 17.292 8.754C17.292 8.427 17.5095 8.181 17.7825 8.1C17.7825 8.1 17.7825 8.127 17.8095 8.127C17.8365 8.127 17.8635 8.154 17.8635 8.154C18.1635 8.1 19.2 8.0175 20.181 8.2635C22.0095 8.7 24.4635 10.7175 23.373 14.454Z" fill="#EA5D5C"/>
</svg>
