<svg width="16" height="16" viewBox="0 0 16 16" fill="none" xmlns="http://www.w3.org/2000/svg">
<path d="M8 0C3.56667 0 0 3.56667 0 8C0 12.4333 3.56667 16 8 16C12.4333 16 16 12.4333 16 8C16 3.56667 12.4333 0 8 0ZM11.8667 6.1L7.36667 10.6C7.26667 10.7 7.13333 10.7333 7 10.7333C6.86667 10.7333 6.73333 10.7 6.63333 10.6L4.13333 8.1C3.93333 7.9 3.93333 7.6 4.13333 7.4C4.33333 7.2 4.63333 7.2 4.83333 7.4L6.96667 9.53333L11.1 5.4C11.3 5.2 11.6 5.2 11.8 5.4C12.0333 5.6 12.0333 5.9 11.8667 6.1Z" fill="#58B251"/>
</svg>
