<svg width="24" height="24" viewBox="0 0 24 24" fill="none" xmlns="http://www.w3.org/2000/svg">
<path d="M20.9413 17.0165L19.2163 6.0309C19.0663 5.02896 18.1663 4.2775 17.0788 4.2775H16.8538C16.4413 4.2775 16.1038 4.59955 16.1038 4.99317C16.1038 5.3868 16.4413 5.70885 16.8538 5.70885H17.0788C17.4163 5.70885 17.6788 5.92355 17.7163 6.20982L19.4788 17.2312C19.5163 17.4459 19.4038 17.5891 19.3288 17.6607C19.2163 17.8038 19.0288 17.8754 18.8038 17.8754H5.1538C4.9663 17.8754 4.7788 17.8038 4.6288 17.6607C4.5538 17.5891 4.4413 17.4459 4.4788 17.2312L6.2038 6.20982C6.2413 5.92355 6.5413 5.70885 6.8413 5.70885H7.1038C7.5163 5.70885 7.8538 5.3868 7.8538 4.99317C7.8538 4.59955 7.5163 4.2775 7.1038 4.2775H6.8788C5.7913 4.2775 4.8913 5.02896 4.7413 5.99512L3.0163 17.0165C2.9413 17.5891 3.1288 18.1616 3.5038 18.591C3.9163 19.0562 4.5163 19.3067 5.1538 19.3067H18.8413C19.4788 19.3067 20.0788 19.0562 20.4913 18.591C20.8663 18.1616 21.0538 17.5891 20.9413 17.0165Z" fill="#152844"/>
<path d="M9.35382 7.49804C9.76632 7.49804 10.1038 7.17598 10.1038 6.78236V5.35101C10.1038 4.34906 10.9288 3.56182 11.9788 3.56182C13.0288 3.56182 13.8538 4.34906 13.8538 5.35101V6.78236C13.8538 7.17598 14.1913 7.49804 14.6038 7.49804C15.0163 7.49804 15.3538 7.17598 15.3538 6.78236V5.35101C15.3538 3.56182 13.8538 2.13046 11.9788 2.13046C10.1038 2.13046 8.60382 3.56182 8.60382 5.35101V6.78236C8.60382 7.17598 8.94132 7.49804 9.35382 7.49804Z" fill="#152844"/>
<path d="M12.7288 15.0126H11.2288C10.8163 15.0126 10.4788 15.3347 10.4788 15.7283C10.4788 16.1219 10.8163 16.444 11.2288 16.444H12.7288C13.1413 16.444 13.4788 16.1219 13.4788 15.7283C13.4788 15.3347 13.1413 15.0126 12.7288 15.0126Z" fill="#152844"/>
</svg>
