<svg width="20" height="20" viewBox="0 0 20 20" fill="none" xmlns="http://www.w3.org/2000/svg">
<circle cx="10.3125" cy="10" r="8.125" fill="#EBEBEB"/>
<path fill-rule="evenodd" clip-rule="evenodd" d="M7.05806 12.3706C6.81398 12.6146 6.81398 13.0104 7.05806 13.2544C7.30214 13.4985 7.69786 13.4985 7.94194 13.2544L10.3125 10.8839L12.6831 13.2544C12.9271 13.4985 13.3229 13.4985 13.5669 13.2544C13.811 13.0104 13.811 12.6146 13.5669 12.3706L11.1964 10L13.5669 7.62944C13.811 7.38536 13.811 6.98964 13.5669 6.74556C13.3229 6.50148 12.9271 6.50148 12.6831 6.74556L10.3125 9.11612L7.94194 6.74556C7.69786 6.50148 7.30214 6.50148 7.05806 6.74556C6.81398 6.98964 6.81398 7.38536 7.05806 7.62944L9.42862 10L7.05806 12.3706Z" fill="#A1ADC5"/>
</svg>
