<svg width="64" height="64" viewBox="0 0 64 64" fill="none" xmlns="http://www.w3.org/2000/svg">
<path d="M55.59 16.86C47.09 15.27 39.25 12.02 32.29 7.2L32 7L31.71 7.2C24.75 12.02 16.91 15.27 8.41 16.86L8 16.93V17.34C8.13 32.17 11.11 47.23 31.78 56.89L32.01 57L32.23 56.88C51.75 46.74 55.85 33.74 56 17.34V16.93L55.59 16.86ZM31.93 52.5C15.35 44.16 12.5 32.08 12.01 20.21C19.18 18.54 25.9 15.72 32 11.81C38.1 15.71 44.82 18.54 51.99 20.21C51.43 33.28 47.73 43.8 31.93 52.5Z" fill="black"/>
<path d="M26.06 29.03C25.88 28.83 25.66 28.68 25.39 28.56C24.92 28.36 24.43 28.35 23.9 28.57C23.42 28.78 23.03 29.19 22.83 29.73C22.74 29.97 22.69 30.22 22.69 30.48C22.69 30.73 22.74 30.98 22.84 31.25C22.94 31.5 23.08 31.73 23.26 31.92L29.14 38.17C29.32 38.37 29.54 38.52 29.81 38.64C30.05 38.74 30.29 38.79 30.54 38.79C30.79 38.79 31.03 38.74 31.3 38.63C31.54 38.52 31.76 38.37 31.95 38.17L41.74 27.76C41.92 27.57 42.07 27.34 42.17 27.06C42.26 26.82 42.31 26.57 42.31 26.31C42.31 26.05 42.26 25.81 42.17 25.54C41.97 25.03 41.59 24.62 41.08 24.4C40.6 24.2 40.12 24.19 39.59 24.41C39.34 24.52 39.13 24.67 38.94 24.87L30.55 33.79L26.06 29.03Z" fill="black"/>
</svg>
