<svg width="24" height="24" viewBox="0 0 24 24" fill="none" xmlns="http://www.w3.org/2000/svg">
<path d="M20.25 4.5H12.75V3.75C12.75 3.3375 12.4125 3 12 3C11.5875 3 11.25 3.3375 11.25 3.75V4.5H3.75C3.3375 4.5 3 4.8375 3 5.25C3 5.6625 3.3375 6 3.75 6H20.25C20.6625 6 21 5.6625 21 5.25C21 4.8375 20.6625 4.5 20.25 4.5Z" fill="#5F77A6"/>
<path d="M10.875 17.25V8.25C10.875 7.8375 10.5375 7.5 10.125 7.5C9.7125 7.5 9.375 7.8375 9.375 8.25V17.25C9.375 17.6625 9.7125 18 10.125 18C10.5375 18 10.875 17.6625 10.875 17.25Z" fill="#5F77A6"/>
<path d="M17.25 7.5C16.8375 7.5 16.5 7.8375 16.5 8.25V17.25C16.5 18.4913 15.4913 19.5 14.25 19.5H9.75C8.50875 19.5 7.5 18.4913 7.5 17.25V8.25C7.5 7.8375 7.1625 7.5 6.75 7.5C6.3375 7.5 6 7.8375 6 8.25V17.25C6 19.3162 7.68375 21 9.75 21H14.25C16.3162 21 18 19.3162 18 17.25V8.25C18 7.8375 17.6625 7.5 17.25 7.5Z" fill="#5F77A6"/>
<path d="M14.625 17.25V8.25C14.625 7.8375 14.2875 7.5 13.875 7.5C13.4625 7.5 13.125 7.8375 13.125 8.25V17.25C13.125 17.6625 13.4625 18 13.875 18C14.2875 18 14.625 17.6625 14.625 17.25Z" fill="#5F77A6"/>
</svg>
