<svg width="32" height="32" viewBox="0 0 32 32" fill="none" xmlns="http://www.w3.org/2000/svg">
<path d="M25.025 7H17.075C16.75 7 16.445 6.84 16.265 6.57L15.415 5.31C14.86 4.49 13.94 4 12.95 4H8.06C7.06 4 6.135 4.495 5.585 5.325L4.5 6.945C4.175 7.44 4 8.01 4 8.6V25.025C4 26.665 5.335 28 6.975 28H25.02C26.66 28 27.995 26.665 27.995 25.025V9.975C28 8.335 26.665 7 25.025 7ZM26 25.025C26 25.565 25.56 26 25.025 26H6.975C6.44 26 6 25.56 6 25.025V8.6C6 8.405 6.055 8.22 6.165 8.06L7.245 6.44C7.425 6.165 7.73 6 8.06 6H12.95C13.275 6 13.575 6.16 13.76 6.43L14.61 7.69C15.165 8.51 16.085 9 17.075 9H25.02C25.56 9 25.995 9.44 25.995 9.975V25.025H26Z" fill="#152844"/>
<path d="M18.7951 16.795L17.0001 18.585V14C17.0001 13.45 16.5501 13 16.0001 13C15.4501 13 15.0001 13.45 15.0001 14V18.585L13.2051 16.79C12.8151 16.4 12.1801 16.4 11.7901 16.79C11.4001 17.18 11.4001 17.815 11.7901 18.205L15.2901 21.705C15.4901 21.9 15.7451 22 16.0001 22C16.2551 22 16.5101 21.9 16.7051 21.705L20.2051 18.205C20.5951 17.815 20.5951 17.18 20.2051 16.79C19.8151 16.4 19.1851 16.4 18.7951 16.795Z" fill="#4684E2"/>
</svg>
