<svg width="24" height="24" viewBox="0 0 24 24" fill="none" xmlns="http://www.w3.org/2000/svg">
<g clip-path="url(#clip0)">
<path d="M12 21C12.8288 21 13.5 20.3288 13.5 19.5H10.5C10.5 20.3288 11.1713 21 12 21Z" fill="black"/>
<path d="M20.7787 17.0963L18 14.3138V10.125C18 7.3275 16.0762 4.98 13.4812 4.31625C13.3912 3.5775 12.765 3 12 3C11.235 3 10.6087 3.5775 10.5187 4.31625C7.92373 4.98 5.99999 7.3275 5.99999 10.125V14.3138L3.22124 17.0925C3.00749 17.3063 2.94374 17.6287 3.05999 17.91C3.17249 18.1912 3.44624 18.375 3.74999 18.375H20.25C20.5537 18.375 20.8275 18.1912 20.9437 17.9137C21.06 17.6325 20.9962 17.31 20.7787 17.0963ZM5.56124 16.875L7.28249 15.1537C7.42124 15.015 7.49998 14.8237 7.49998 14.625V10.125C7.49998 7.6425 9.51748 5.625 12 5.625C14.4825 5.625 16.5 7.6425 16.5 10.125V14.625C16.5 14.8237 16.5787 15.015 16.7212 15.1537L18.4387 16.875H5.56124Z" fill="black"/>
</g>
<defs>
<clipPath id="clip0">
<rect width="18" height="18" fill="white" transform="translate(3 3)"/>
</clipPath>
</defs>
</svg>
