<svg width="24" height="24" viewBox="0 0 24 24" fill="none" xmlns="http://www.w3.org/2000/svg">
<path d="M20.25 10.3125C20.25 5.65875 16.4662 1.875 11.8125 1.875C7.15875 1.875 3.375 5.65875 3.375 10.3125C3.375 12.5025 4.19625 14.55 5.7 16.125H5.67375L11.8125 21.8175L17.9513 16.125H17.925C19.4287 14.55 20.25 12.5025 20.25 10.3125ZM11.8125 3.375C15.6375 3.375 18.75 6.4875 18.75 10.3125C18.75 12.24 17.9775 14.0325 16.5712 15.3562L11.8125 19.7737L7.23375 15.525L7.05375 15.3562C5.6475 14.0325 4.875 12.24 4.875 10.3125C4.875 6.4875 7.9875 3.375 11.8125 3.375Z" fill="#4684E2"/>
<path d="M11.8124 13.9913C13.8412 13.9913 15.4912 12.3413 15.4912 10.3125C15.4912 8.28379 13.8412 6.63379 11.8124 6.63379C9.78367 6.63379 8.13367 8.28379 8.13367 10.3125C8.13367 12.3413 9.78367 13.9913 11.8124 13.9913ZM11.8124 8.13379C13.0124 8.13379 13.9912 9.11254 13.9912 10.3125C13.9912 11.5125 13.0124 12.4913 11.8124 12.4913C10.6124 12.4913 9.63367 11.5125 9.63367 10.3125C9.63367 9.11254 10.6124 8.13379 11.8124 8.13379Z" fill="#4684E2"/>
</svg>
