<svg width="24" height="24" viewBox="0 0 24 24" fill="none" xmlns="http://www.w3.org/2000/svg">
<path fill-rule="evenodd" clip-rule="evenodd" d="M6.75 6.75C6.75 7.1625 7.0875 7.5 7.5 7.5C7.9125 7.5 8.25 7.1625 8.25 6.75V6H15.75V6.75C15.75 7.1625 16.0875 7.5 16.5 7.5C16.9125 7.5 17.25 7.1625 17.25 6.75V6H18.7537C19.1663 6 19.5 6.33375 19.4963 6.74625V18.7537C19.4963 19.1663 19.1625 19.5 18.75 19.5H5.24625C4.83375 19.5 4.5 19.1663 4.5 18.75V6.74625C4.5 6.33375 4.83375 6 5.24625 6H6.75V6.75ZM6.75 3.75V4.5H5.24625C4.00875 4.5 3 5.50875 3 6.74625V18.7537C3 19.9912 4.00875 21 5.24625 21H18.7537C19.9912 21 21 19.9912 21 18.75V6.74625C21 5.50875 19.9912 4.5 18.75 4.5H17.25V3.75C17.25 3.3375 16.9125 3 16.5 3C16.0875 3 15.75 3.3375 15.75 3.75V4.5H8.25V3.75C8.25 3.3375 7.9125 3 7.5 3C7.0875 3 6.75 3.3375 6.75 3.75ZM7.5 11.25H16.5C16.9125 11.25 17.25 10.9125 17.25 10.5C17.25 10.0875 16.9125 9.75 16.5 9.75H7.5C7.0875 9.75 6.75 10.0875 6.75 10.5C6.75 10.9125 7.0875 11.25 7.5 11.25ZM16.5 14.25H7.5C7.0875 14.25 6.75 13.9125 6.75 13.5C6.75 13.0875 7.0875 12.75 7.5 12.75H16.5C16.9125 12.75 17.25 13.0875 17.25 13.5C17.25 13.9125 16.9125 14.25 16.5 14.25ZM7.5 17.25H16.5C16.9125 17.25 17.25 16.9125 17.25 16.5C17.25 16.0875 16.9125 15.75 16.5 15.75H7.5C7.0875 15.75 6.75 16.0875 6.75 16.5C6.75 16.9125 7.0875 17.25 7.5 17.25Z" fill="#4684E2"/>
</svg>
