<svg width="24" height="24" viewBox="0 0 24 24" fill="none" xmlns="http://www.w3.org/2000/svg">
<path d="M12 3C7.0125 3 3 7.0125 3 12C3 16.9875 7.0125 21 12 21C16.9875 21 21 16.9875 21 12C21 7.0125 16.9875 3 12 3ZM12 19.5C7.875 19.5 4.5 16.125 4.5 12C4.5 7.875 7.875 4.5 12 4.5C16.125 4.5 19.5 7.875 19.5 12C19.5 16.125 16.125 19.5 12 19.5Z" fill="#4684E2"/>
<path d="M15.75 7.875H8.25C7.8375 7.875 7.5 8.2125 7.5 8.625C7.5 9.0375 7.8375 9.375 8.25 9.375H11.25V16.125C11.25 16.5375 11.5875 16.875 12 16.875C12.4125 16.875 12.75 16.5375 12.75 16.125V9.375H15.75C16.1625 9.375 16.5 9.0375 16.5 8.625C16.5 8.2125 16.1625 7.875 15.75 7.875Z" fill="#4684E2"/>
</svg>
