<svg width="20" height="20" viewBox="0 0 20 20" fill="none" xmlns="http://www.w3.org/2000/svg">
<g clip-path="url(#clip0)">
<path d="M17.2495 10.5624L15.562 8.87494C16.562 8.09369 17.1245 7.40619 17.187 7.34369C17.3433 7.15619 17.312 6.84369 17.1245 6.68744C16.9058 6.53119 16.6245 6.56244 16.4683 6.74994C16.437 6.78119 13.812 9.99994 9.93701 9.99994C6.09326 9.99994 3.46826 6.78119 3.43701 6.74994C3.28076 6.53119 2.96826 6.49994 2.78076 6.65619C2.56201 6.81244 2.53076 7.12494 2.71826 7.31244C2.78076 7.37494 3.34326 8.09369 4.34326 8.84369L2.65576 10.5312C2.46826 10.7187 2.46826 10.9999 2.65576 11.1874C2.74951 11.2812 2.87451 11.3124 2.99951 11.3124C3.12451 11.3124 3.24951 11.2812 3.34326 11.1874L5.12451 9.40619C5.12451 9.40619 5.12451 9.37494 5.15576 9.37494C6.28076 10.1249 7.78076 10.7812 9.53076 10.8749V13.0624C9.53076 13.3124 9.74951 13.5312 9.99951 13.5312C10.2495 13.5312 10.4683 13.3124 10.4683 13.0624V10.8749C12.2183 10.7812 13.7183 10.0937 14.8433 9.37494C14.8433 9.37494 14.8433 9.40619 14.8745 9.40619L16.6558 11.1874C16.7495 11.2812 16.8745 11.3124 16.9995 11.3124C17.1245 11.3124 17.2495 11.2812 17.3433 11.1874C17.437 11.0312 17.437 10.7499 17.2495 10.5624Z" fill="#A1ADC5"/>
</g>
<defs>
<clipPath id="clip0">
<rect width="14.9063" height="7.03125" fill="white" transform="translate(2.5 6.5625)"/>
</clipPath>
</defs>
</svg>
