<svg width="32" height="32" viewBox="0 0 32 32" fill="none" xmlns="http://www.w3.org/2000/svg">
<path fill-rule="evenodd" clip-rule="evenodd" d="M4 24C4 26.205 5.795 28 8 28H24C26.205 28 28 26.205 28 24V8C28 5.795 26.205 4 24 4H8C5.795 4 4 5.795 4 8V24ZM6 8C6 6.895 6.9 6 8 6H24C25.105 6 26 6.9 26 8V24C26 25.105 25.1 26 24 26H8C6.895 26 6 25.1 6 24V8ZM11 9.5C11 10.3284 10.3284 11 9.5 11C8.67157 11 8 10.3284 8 9.5C8 8.67157 8.67157 8 9.5 8C10.3284 8 11 8.67157 11 9.5ZM13.5 11C14.3284 11 15 10.3284 15 9.5C15 8.67157 14.3284 8 13.5 8C12.6716 8 12 8.67157 12 9.5C12 10.3284 12.6716 11 13.5 11ZM19 9.5C19 10.3284 18.3284 11 17.5 11C16.6716 11 16 10.3284 16 9.5C16 8.67157 16.6716 8 17.5 8C18.3284 8 19 8.67157 19 9.5Z" fill="#152844"/>
<path d="M15 15H9C8.45 15 8 14.55 8 14C8 13.45 8.45 13 9 13H15C15.55 13 16 13.45 16 14C16 14.55 15.55 15 15 15Z" fill="#4684E2"/>
<path d="M21 19H9C8.45 19 8 18.55 8 18C8 17.45 8.45 17 9 17H21C21.55 17 22 17.45 22 18C22 18.55 21.55 19 21 19Z" fill="#4684E2"/>
<path d="M17 23H9C8.45 23 8 22.55 8 22C8 21.45 8.45 21 9 21H17C17.55 21 18 21.45 18 22C18 22.55 17.55 23 17 23Z" fill="#4684E2"/>
</svg>
