<svg width="32" height="32" viewBox="0 0 32 32" fill="none" xmlns="http://www.w3.org/2000/svg">
<path fill-rule="evenodd" clip-rule="evenodd" d="M16 4L11.2164 9.81429L4 12.4019L8.26 18.5829L8.58182 26L16 24.0043L23.4182 26L23.74 18.5829L28 12.4019L20.7836 9.81429L16 4ZM13 16.5C12.45 16.5 12 16.05 12 15.5V14C12 13.45 12.45 13 13 13C13.55 13 14 13.45 14 14V15.5C14 16.05 13.55 16.5 13 16.5ZM18 15.5C18 16.05 18.45 16.5 19 16.5C19.55 16.5 20 16.05 20 15.5V14C20 13.45 19.55 13 19 13C18.45 13 18 13.45 18 14V15.5Z" fill="#4684E2"/>
<path d="M4.99994 28.0001C4.74494 28.0001 4.48994 27.9001 4.29494 27.7051C3.90494 27.3151 3.90494 26.6801 4.29494 26.2901L5.79494 24.7901C6.18494 24.4001 6.81994 24.4001 7.20994 24.7901C7.59994 25.1801 7.59994 25.8151 7.20994 26.2051L5.70994 27.7051C5.50994 27.9001 5.25494 28.0001 4.99994 28.0001Z" fill="#4684E2"/>
<path d="M25.4999 7.50006C25.2449 7.50006 24.9899 7.40006 24.7949 7.20506C24.4049 6.81506 24.4049 6.18006 24.7949 5.79006L26.2949 4.29006C26.6849 3.90006 27.3199 3.90006 27.7099 4.29006C28.0999 4.68006 28.0999 5.31506 27.7099 5.70506L26.2099 7.20506C26.0099 7.40006 25.7549 7.50006 25.4999 7.50006Z" fill="#4684E2"/>
<path d="M6.49994 7.50006C6.24494 7.50006 5.98994 7.40006 5.79494 7.20506L4.29494 5.70506C3.90494 5.31506 3.90494 4.68006 4.29494 4.29006C4.68494 3.90006 5.31994 3.90006 5.70994 4.29006L7.20994 5.79006C7.59994 6.18006 7.59994 6.81506 7.20994 7.20506C7.00994 7.40006 6.75494 7.50006 6.49994 7.50006Z" fill="#4684E2"/>
<path d="M26.9999 28.0001C26.7449 28.0001 26.4899 27.9001 26.2949 27.7051L24.7949 26.2051C24.4049 25.8151 24.4049 25.1801 24.7949 24.7901C25.1849 24.4001 25.8199 24.4001 26.2099 24.7901L27.7099 26.2901C28.0999 26.6801 28.0999 27.3151 27.7099 27.7051C27.5099 27.9001 27.2549 28.0001 26.9999 28.0001Z" fill="#4684E2"/>
</svg>
