<svg width="24" height="24" viewBox="0 0 24 24" fill="none" xmlns="http://www.w3.org/2000/svg">
<path d="M12 4.5C16.125 4.5 19.5 7.875 19.5 12C19.5 16.125 16.125 19.5 12 19.5C7.875 19.5 4.5 16.125 4.5 12C4.5 7.875 7.875 4.5 12 4.5ZM12 3C7.0125 3 3 7.0125 3 12C3 16.9875 7.0125 21 12 21C16.9875 21 21 16.9875 21 12C21 7.0125 16.9875 3 12 3Z" fill="#1E1E1E"/>
<path d="M9 12.75C8.5875 12.75 8.25 12.4125 8.25 12V9.75C8.25 9.3375 8.5875 9 9 9C9.4125 9 9.75 9.3375 9.75 9.75V12C9.75 12.4125 9.4125 12.75 9 12.75Z" fill="#1E1E1E"/>
<path d="M15 12.75C14.5875 12.75 14.25 12.4125 14.25 12V9.75C14.25 9.3375 14.5875 9 15 9C15.4125 9 15.75 9.3375 15.75 9.75V12C15.75 12.4125 15.4125 12.75 15 12.75Z" fill="#1E1E1E"/>
</svg>
