<svg width="24" height="24" viewBox="0 0 24 24" fill="none" xmlns="http://www.w3.org/2000/svg">
<path d="M4.125 6.375H5.3625C5.7 7.4625 6.675 8.25 7.875 8.25C9.075 8.25 10.05 7.4625 10.3875 6.375H20.25C20.6625 6.375 21 6.0375 21 5.625C21 5.2125 20.6625 4.875 20.25 4.875H10.3875C10.05 3.7875 9.075 3 7.875 3C6.675 3 5.7 3.7875 5.3625 4.875H4.125C3.7125 4.875 3.375 5.2125 3.375 5.625C3.375 6.0375 3.7125 6.375 4.125 6.375ZM7.875 4.5C8.2125 4.5 8.5125 4.65 8.7 4.875C8.7375 4.9125 8.775 4.9875 8.8125 5.025C8.85 5.0625 8.8875 5.1375 8.8875 5.175C8.8875 5.2125 8.8875 5.2125 8.925 5.25C8.925 5.2875 8.9625 5.325 8.9625 5.4C9 5.475 9 5.55 9 5.625C9 5.7 9 5.775 8.9625 5.85C8.9625 5.8875 8.925 5.925 8.925 6C8.925 6.0375 8.925 6.0375 8.8875 6.075C8.85 6.1125 8.85 6.1875 8.8125 6.225C8.775 6.2625 8.7375 6.3375 8.7 6.375C8.475 6.6 8.2125 6.75 7.875 6.75C7.5375 6.75 7.2375 6.6 7.05 6.375C7.0125 6.3375 6.9375 6.2625 6.9375 6.225C6.9 6.15 6.8625 6.1125 6.825 6.0375C6.825 6 6.825 6 6.7875 5.9625C6.7875 5.925 6.75 5.8875 6.75 5.8125C6.75 5.775 6.75 5.7 6.75 5.625C6.75 5.55 6.75 5.475 6.7875 5.4C6.7875 5.3625 6.825 5.325 6.825 5.25C6.825 5.2125 6.825 5.2125 6.8625 5.175C6.9 5.1375 6.9 5.0625 6.9375 5.025C6.9375 4.9875 7.0125 4.9125 7.05 4.875C7.2375 4.65 7.5375 4.5 7.875 4.5Z" fill="#4684E2"/>
<path d="M20.25 11.25H19.3875C19.05 10.1625 18.075 9.375 16.875 9.375C15.675 9.375 14.7 10.1625 14.3625 11.25H4.125C3.7125 11.25 3.375 11.5875 3.375 12C3.375 12.4125 3.7125 12.75 4.125 12.75H14.3625C14.7 13.8375 15.675 14.625 16.875 14.625C18.075 14.625 19.05 13.8375 19.3875 12.75H20.25C20.6625 12.75 21 12.4125 21 12C21 11.5875 20.6625 11.25 20.25 11.25ZM16.875 13.125C16.5375 13.125 16.2375 12.975 16.05 12.75C16.0125 12.7125 15.975 12.6375 15.9375 12.6C15.9 12.5625 15.8625 12.4875 15.8625 12.45C15.8625 12.4125 15.8625 12.4125 15.825 12.375C15.825 12.3375 15.7875 12.3 15.7875 12.225C15.7875 12.15 15.75 12.075 15.75 12C15.75 11.925 15.75 11.85 15.7875 11.775C15.7875 11.7375 15.825 11.7 15.825 11.625C15.825 11.5875 15.825 11.5875 15.8625 11.55C15.9 11.5125 15.9 11.4375 15.9375 11.4C15.975 11.3625 16.0125 11.2875 16.05 11.25C16.275 11.025 16.5375 10.875 16.875 10.875C17.2125 10.875 17.5125 11.025 17.7 11.25C17.7375 11.2875 17.775 11.3625 17.8125 11.4C17.85 11.4375 17.8875 11.5125 17.8875 11.55C17.8875 11.5875 17.8875 11.5875 17.925 11.625C17.925 11.6625 17.9625 11.7 17.9625 11.775C17.9625 11.85 18 11.925 18 12C18 12.075 18 12.15 17.9625 12.225C17.9625 12.2625 17.925 12.3 17.925 12.375C17.925 12.4125 17.925 12.4125 17.8875 12.45C17.85 12.4875 17.85 12.5625 17.8125 12.6C17.775 12.6375 17.7375 12.7125 17.7 12.75C17.5125 12.975 17.2125 13.125 16.875 13.125Z" fill="#4684E2"/>
<path d="M20.25 17.625H12.6375C12.3 16.5375 11.325 15.75 10.125 15.75C8.925 15.75 7.95 16.5375 7.6125 17.625H4.125C3.7125 17.625 3.375 17.9625 3.375 18.375C3.375 18.7875 3.7125 19.125 4.125 19.125H7.6125C7.95 20.2125 8.925 21 10.125 21C11.325 21 12.3 20.2125 12.6375 19.125H20.25C20.6625 19.125 21 18.7875 21 18.375C21 17.9625 20.6625 17.625 20.25 17.625ZM10.125 19.5C9.7875 19.5 9.4875 19.35 9.3 19.125C9.2625 19.0875 9.225 19.0125 9.1875 18.975C9.15 18.9375 9.1125 18.8625 9.1125 18.825C9.1125 18.7875 9.1125 18.7875 9.075 18.75C9.075 18.7125 9.0375 18.675 9.0375 18.6C9.0375 18.525 9 18.45 9 18.375C9 18.3 9 18.225 9.0375 18.15C9.0375 18.1125 9.075 18.075 9.075 18C9.075 17.9625 9.075 17.9625 9.1125 17.925C9.15 17.8875 9.15 17.8125 9.1875 17.775C9.225 17.7375 9.2625 17.6625 9.3 17.625C9.525 17.4 9.7875 17.25 10.125 17.25C10.4625 17.25 10.7625 17.4 10.95 17.625C10.9875 17.6625 11.025 17.7375 11.0625 17.775C11.1 17.8125 11.1375 17.8875 11.1375 17.925C11.1375 17.9625 11.1375 17.9625 11.175 18C11.175 18.0375 11.2125 18.075 11.2125 18.15C11.2125 18.225 11.25 18.3 11.25 18.375C11.25 18.45 11.25 18.525 11.2125 18.6C11.2125 18.6375 11.175 18.675 11.175 18.75C11.175 18.7875 11.175 18.7875 11.1375 18.825C11.1 18.8625 11.1 18.9375 11.0625 18.975C11.025 19.0125 10.9875 19.0875 10.95 19.125C10.7625 19.35 10.4625 19.5 10.125 19.5Z" fill="#4684E2"/>
</svg>
