<svg width="24" height="24" viewBox="0 0 24 24" fill="none" xmlns="http://www.w3.org/2000/svg">
<path fill-rule="evenodd" clip-rule="evenodd" d="M18.375 16.1251C18.375 16.5376 18.7125 16.8751 19.125 16.8751C19.5375 16.8751 19.875 16.5376 19.875 16.1251V5.70013C19.875 4.61263 18.975 3.60014 17.8125 3.41264L10.6875 2.25014C10.275 2.21264 9.90001 2.47514 9.82501 2.88764C9.78751 3.30014 10.05 3.67514 10.4625 3.75014L17.5875 4.91264C18.0375 4.98764 18.375 5.40014 18.375 5.70013V16.1251ZM16.9875 18.6752C16.575 18.6752 16.2375 18.3377 16.2375 17.9252V7.46271C16.2375 7.16271 15.9 6.75021 15.45 6.67521L8.32501 5.51271C7.91251 5.43771 7.65001 5.06271 7.68751 4.65021C7.76251 4.23771 8.13751 3.97521 8.55001 4.01271L15.675 5.17521C16.8375 5.36271 17.7375 6.37521 17.7375 7.46271V17.9252C17.7375 18.3377 17.4 18.6752 16.9875 18.6752ZM13.6875 21.5253C13.575 21.5253 13.4625 21.5253 13.3125 21.4878L6.1875 20.3253C5.025 20.1378 4.125 19.1628 4.125 18.0753V7.61275C4.125 7.05025 4.35 6.56275 4.7625 6.22525C5.2125 5.85025 5.8125 5.70025 6.4125 5.81275L13.5375 6.97525C14.7 7.16275 15.6 8.17525 15.6 9.26275V19.7253C15.6 20.2878 15.375 20.7753 14.9625 21.1128C14.625 21.3378 14.175 21.5253 13.6875 21.5253ZM13.5375 19.9878C13.725 20.0253 13.875 19.9878 13.9875 19.9128C14.0625 19.8378 14.1 19.7628 14.1 19.6503V9.22525C14.1 8.92525 13.7625 8.51275 13.3125 8.43775L6.1875 7.27525C6 7.23775 5.85 7.27525 5.7375 7.35025C5.6625 7.42525 5.625 7.50025 5.625 7.61275V18.0753C5.625 18.3753 5.9625 18.7878 6.4125 18.8628L13.5375 19.9878Z" fill="#4684E2"/>
</svg>
