<svg width="24" height="24" viewBox="0 0 24 24" fill="none" xmlns="http://www.w3.org/2000/svg">
<path d="M20.25 4.5H3.75C2.50875 4.5 1.5 5.50875 1.5 6.75V17.25C1.5 18.4913 2.50875 19.5 3.75 19.5H20.25C21.4912 19.5 22.5 18.4913 22.5 17.25V6.75C22.5 5.50875 21.4912 4.5 20.25 4.5ZM21 17.25C21 17.6625 20.6625 18 20.25 18H3.75C3.3375 18 3 17.6625 3 17.25V6.75C3 6.3375 3.3375 6 3.75 6H20.25C20.6625 6 21 6.3375 21 6.75V17.25Z" fill="#4684E2"/>
<path d="M7.16621 10.2527C6.82121 10.024 6.35621 10.1177 6.12746 10.459L4.62746 12.709C4.39871 13.054 4.49246 13.519 4.83371 13.7477C4.96121 13.834 5.10746 13.8752 5.24996 13.8752C5.49371 13.8752 5.72996 13.759 5.87621 13.5415L7.37621 11.2915C7.60496 10.9465 7.51121 10.4815 7.16621 10.2527Z" fill="#4684E2"/>
<path d="M10.9162 10.2527C10.5712 10.024 10.1062 10.1177 9.87746 10.459L8.37746 12.709C8.14871 13.054 8.24246 13.519 8.58371 13.7477C8.71121 13.834 8.85746 13.8752 8.99996 13.8752C9.24371 13.8752 9.47996 13.759 9.62621 13.5415L11.1262 11.2915C11.355 10.9465 11.2612 10.4815 10.9162 10.2527Z" fill="#4684E2"/>
<path d="M14.6662 10.2527C14.3212 10.024 13.8562 10.1177 13.6275 10.459L12.1275 12.709C11.8987 13.054 11.9925 13.519 12.3337 13.7477C12.4612 13.834 12.6075 13.8752 12.75 13.8752C12.9937 13.8752 13.23 13.759 13.3762 13.5415L14.8762 11.2915C15.105 10.9465 15.0112 10.4815 14.6662 10.2527Z" fill="#4684E2"/>
<path d="M17.625 6.375C17.2125 6.375 16.875 6.7125 16.875 7.125V7.875C16.875 8.2875 17.2125 8.625 17.625 8.625C18.0375 8.625 18.375 8.2875 18.375 7.875V7.125C18.375 6.7125 18.0375 6.375 17.625 6.375Z" fill="#4684E2"/>
<path d="M17.625 9.375C17.2125 9.375 16.875 9.7125 16.875 10.125V10.875C16.875 11.2875 17.2125 11.625 17.625 11.625C18.0375 11.625 18.375 11.2875 18.375 10.875V10.125C18.375 9.7125 18.0375 9.375 17.625 9.375Z" fill="#4684E2"/>
<path d="M17.625 12.375C17.2125 12.375 16.875 12.7125 16.875 13.125V13.875C16.875 14.2875 17.2125 14.625 17.625 14.625C18.0375 14.625 18.375 14.2875 18.375 13.875V13.125C18.375 12.7125 18.0375 12.375 17.625 12.375Z" fill="#4684E2"/>
<path d="M17.625 15.375C17.2125 15.375 16.875 15.7125 16.875 16.125V16.875C16.875 17.2875 17.2125 17.625 17.625 17.625C18.0375 17.625 18.375 17.2875 18.375 16.875V16.125C18.375 15.7125 18.0375 15.375 17.625 15.375Z" fill="#4684E2"/>
</svg>
