<svg width="64" height="64" viewBox="0 0 64 64" fill="none" xmlns="http://www.w3.org/2000/svg">
<path fill-rule="evenodd" clip-rule="evenodd" d="M13 52C13 56.41 16.59 60 21 60H43C47.41 60 51 56.41 51 52V12C51 7.59 47.41 4 43 4H21C16.59 4 13 7.59 13 12V52ZM17 12C17 9.8 18.8 8 21 8H43C45.2 8 47 9.79 47 12V52C47 54.2 45.21 56 43 56H21C18.8 56 17 54.21 17 52V12ZM35 51C35 52.6569 33.6569 54 32 54C30.3431 54 29 52.6569 29 51C29 49.3431 30.3431 48 32 48C33.6569 48 35 49.3431 35 51Z" fill="black"/>
</svg>
