<svg width="46" height="40" viewBox="0 0 46 40" fill="none" xmlns="http://www.w3.org/2000/svg">
<path d="M16.7371 25.2547C16.5282 25.3622 16.3126 25.4093 16.0498 25.4093C15.4636 25.4093 14.9852 25.0933 14.7157 24.6226L14.6079 24.4142L10.3967 15.3841C10.3428 15.2765 10.3428 15.1757 10.3428 15.0681C10.3428 14.6445 10.6594 14.3352 11.0907 14.3352C11.2524 14.3352 11.4074 14.389 11.5691 14.4898L16.5282 17.9526C16.8988 18.161 17.33 18.3157 17.8084 18.3157C18.0779 18.3157 18.3407 18.2619 18.6102 18.161L41.8562 7.97445C37.6921 3.15347 30.8194 0 23.0303 0C10.3428 0 0 8.45184 0 18.8939C0 24.5621 3.09272 29.7058 7.94405 33.1753C8.31463 33.4375 8.58415 33.9082 8.58415 34.3856C8.58415 34.5403 8.53025 34.7016 8.47635 34.8563C8.10576 36.275 7.45891 38.588 7.45891 38.6889C7.40501 38.8435 7.35111 39.0519 7.35111 39.2671C7.35111 39.6907 7.66779 40 8.09902 40C8.26073 40 8.4157 39.9462 8.52351 39.8453L13.5298 36.9608C13.9004 36.7524 14.3316 36.5977 14.7561 36.5977C14.965 36.5977 15.2345 36.6515 15.4434 36.7053C17.7882 37.3844 20.3486 37.7542 22.9629 37.7542C35.6505 37.7542 45.9933 29.3024 45.9933 18.8603C45.9933 15.7068 45.0365 12.7215 43.3789 10.0925L16.8988 25.1471L16.7371 25.2547Z" fill="#09BB07"/>
</svg>
